<svg id="Layer_8" data-name="Layer 8" xmlns="http://www.w3.org/2000/svg" viewBox="0 0 996.5 283.5"><defs><style>.cls-1{fill:#232c77;}.cls-2{fill:#fff;}</style></defs><path class="cls-1" d="M120.5,53a16.78,16.78,0,0,1-11.2-4.2.56.56,0,0,1-.1-.9h0l2.2-3.1a.54.54,0,0,1,.8-.2h.1a14.9,14.9,0,0,0,8.5,3.3c3.2,0,6.4-1.4,6.4-4.4,0-3.2-3.3-4-7.1-4.8-4.6-1-10.7-3.1-10.7-9.6,0-6.1,5.4-8.8,11.8-8.8a17.15,17.15,0,0,1,10.4,3.5.52.52,0,0,1,.2.8.1.1,0,0,1-.1.1l-2.1,3a.52.52,0,0,1-.9.1,14.77,14.77,0,0,0-7.9-2.5c-3.8,0-6,1.5-6,3.9,0,2.8,2.8,3.6,6.7,4.5,5.1,1.1,11.2,2.8,11.2,9.8-.2,6.6-5.8,9.5-12.2,9.5" transform="translate(-0.1 -2.8)"/><path class="cls-1" d="M142.6,47.6h14.2c.4,0,.7.2.7.6v3.6a.75.75,0,0,1-.5.7H137.9c-.4,0-.6-.2-.6-.7V21.6c0-.4.2-.7.6-.7h18.2a.75.75,0,0,1,.7.5v3.8c0,.4-.2.6-.7.6H142.6V34H155a.75.75,0,0,1,.7.5v3.7a.75.75,0,0,1-.5.7H142.6Z" transform="translate(-0.1 -2.8)"/><path class="cls-1" d="M174.2,21c6.9,0,11,4,11,10.7s-4.1,10.8-11,10.8h-6.5v9.3c0,.4-.2.7-.6.7h-4c-.4,0-.6-.2-.6-.7V21.6c0-.4.2-.7.6-.7Zm-.6,16.6c4.3,0,6.2-1.8,6.2-5.9s-2-5.8-6.2-5.8h-5.8V37.6Z" transform="translate(-0.1 -2.8)"/><path class="cls-1" d="M190.3,52.5c-.4,0-.6-.2-.6-.7V21.6c0-.4.2-.7.6-.7h4.1c.4,0,.6.2.6.7V47.5h12.9c.4,0,.7.2.7.6v3.6a.75.75,0,0,1-.5.7H190.3Z" transform="translate(-0.1 -2.8)"/><path class="cls-1" d="M209.4,52.5c-.5,0-.7-.3-.5-.8l10.6-30.2a.75.75,0,0,1,.7-.5h5a.75.75,0,0,1,.7.5l10.6,30.2c.1.5-.1.8-.5.8h-4.3a.89.89,0,0,1-.8-.5l-2.2-6.6h-12L214.6,52a.79.79,0,0,1-.8.5Zm8.7-12h9.1l-4.4-13.7h-.2Z" transform="translate(-0.1 -2.8)"/><path class="cls-1" d="M251.1,53c-6.5,0-12.3-3.6-12.3-11.3v-10c0-7.7,5.6-11.2,12-11.2a20.86,20.86,0,0,1,10.6,2.9.63.63,0,0,1,.3.8.1.1,0,0,1-.1.1l-2.2,3c-.2.4-.5.4-.9.2a14.86,14.86,0,0,0-7.7-2.1c-3.8,0-6.6,2-6.6,6.3v9.9c0,4.3,3.2,6.3,7,6.3a10.47,10.47,0,0,0,6.2-1.8V39.4h-5.9c-.4,0-.6-.2-.6-.7V35.3c0-.4.2-.7.6-.7H262c.4,0,.6.2.6.7V47.7c0,.3,0,.6-.2.7A15.71,15.71,0,0,1,251.1,53" transform="translate(-0.1 -2.8)"/><path class="cls-1" d="M85.6,105.8a16.78,16.78,0,0,1-11.2-4.2.56.56,0,0,1-.1-.9h0l2.2-3.1a.54.54,0,0,1,.8-.2h.1a14.9,14.9,0,0,0,8.5,3.3c3.2,0,6.4-1.4,6.4-4.4,0-3.2-3.3-4-7.1-4.8-4.6-1-10.7-3.1-10.7-9.6,0-6.1,5.4-8.8,11.8-8.8a16.66,16.66,0,0,1,10.3,3.5.52.52,0,0,1,.2.8.1.1,0,0,1-.1.1l-2.1,3a.63.63,0,0,1-.9.1,15.68,15.68,0,0,0-7.9-2.5c-3.8,0-6,1.5-6,3.9,0,2.8,2.8,3.6,6.7,4.4,5.2,1.1,11.2,2.8,11.2,9.8,0,6.7-5.7,9.6-12.1,9.6" transform="translate(-0.1 -2.8)"/><path class="cls-1" d="M120,95.4c0,.4-.2.6-.7.6H106v1.2c0,2.7,1.9,4,4.7,4a10.66,10.66,0,0,0,6.2-2,.53.53,0,0,1,.8.1v.1l1.8,2.4a.61.61,0,0,1,0,.8l-.1.1a13.7,13.7,0,0,1-8.9,3c-5,0-9.6-2.7-9.6-8.6V91c0-6.5,4.8-9,9.7-9s9.5,2.6,9.5,9Zm-9.5-9c-2.6,0-4.5,1.2-4.5,4.5V92h9.1V90.9a4.26,4.26,0,0,0-4.6-4.5" transform="translate(-0.1 -2.8)"/><path class="cls-1" d="M133.1,105.8c-6.2,0-9.9-3.5-9.9-8.9V90.8c0-5.4,3.7-8.8,9.8-8.8a12.91,12.91,0,0,1,7.2,2.1.54.54,0,0,1,.2.8.1.1,0,0,1-.1.1l-1.7,2.6a.65.65,0,0,1-.9.2h-.1a9.4,9.4,0,0,0-4.6-1.3c-3.1,0-4.8,1.5-4.8,4.3V97c0,2.7,1.8,4.3,4.8,4.3a9.32,9.32,0,0,0,5.1-1.6c.4-.2.7-.2.9.2l1.9,2.6a.61.61,0,0,1,0,.8l-.1.1a13,13,0,0,1-7.7,2.4" transform="translate(-0.1 -2.8)"/><path class="cls-1" d="M144.8,105.3a.75.75,0,0,1-.7-.5V84.4a1,1,0,0,1,.5-.8,18.41,18.41,0,0,1,7.7-1.7,34,34,0,0,1,4.5.3.65.65,0,0,1,.6.6h0V86a.51.51,0,0,1-.7.5c-1.2-.1-2.4-.2-3.6-.2a13.2,13.2,0,0,0-3.9.6v17.5a.75.75,0,0,1-.5.7h-3.9v.2Z" transform="translate(-0.1 -2.8)"/><path class="cls-1" d="M178.2,95.4a.53.53,0,0,1-.6.6H164.2v1.2c0,2.7,1.9,4,4.7,4a10.66,10.66,0,0,0,6.2-2,.53.53,0,0,1,.8.1v.1l1.8,2.4a.61.61,0,0,1,0,.8l-.1.1a13.7,13.7,0,0,1-8.9,3c-5,0-9.6-2.7-9.6-8.6V91c0-6.5,4.8-9,9.7-9s9.5,2.6,9.5,9Zm-9.5-9c-2.6,0-4.5,1.2-4.5,4.5V92h9.1V90.9c-.1-3.2-2.1-4.5-4.6-4.5" transform="translate(-0.1 -2.8)"/><path class="cls-1" d="M190.7,101.1a12.83,12.83,0,0,0,1.8-.1c.4,0,.7.2.7.6v3.3c0,.4-.2.7-.6.7h0c-.8,0-1.7.1-2.3.1-4.6,0-8.1-2.3-8.1-8.2v-20c0-.4.2-.6.7-.6h3.4a.73.73,0,0,1,.7.6l.4,5.3h4.7a.75.75,0,0,1,.7.5v3.3a.58.58,0,0,1-.6.6h-4.8V97.3c-.2,2.4,1,3.8,3.3,3.8" transform="translate(-0.1 -2.8)"/><path class="cls-1" d="M204.7,81.9c5.4,0,9.1,2.7,9.1,8.9v12.8a1,1,0,0,1-.5.8,30,30,0,0,1-8.9,1.3c-5.1,0-9.8-1.8-9.8-7.3,0-4.8,4-7,9.6-7a32.53,32.53,0,0,1,4.4.3V91c0-3.1-1.1-4.4-4.4-4.4a10.84,10.84,0,0,0-5.6,1.4.53.53,0,0,1-.8-.1l-.1-.1-1.8-2.7c-.2-.4-.2-.6,0-.8a15.83,15.83,0,0,1,8.8-2.4m-.1,19.4a20.07,20.07,0,0,0,4.2-.5v-5a30,30,0,0,0-4.3-.3c-3.3,0-4.6,1.1-4.6,2.9,0,2,2,3,4.7,2.9" transform="translate(-0.1 -2.8)"/><path class="cls-1" d="M219.2,105.3a.75.75,0,0,1-.7-.5V84.4a1,1,0,0,1,.5-.8,18.41,18.41,0,0,1,7.7-1.7,34,34,0,0,1,4.5.3.65.65,0,0,1,.6.6h0V86a.51.51,0,0,1-.7.5c-1.2-.1-2.4-.2-3.6-.2a13.2,13.2,0,0,0-3.9.6v17.5a.75.75,0,0,1-.5.7h-3.9v.2Z" transform="translate(-0.1 -2.8)"/><path class="cls-1" d="M237.3,79.4a2.88,2.88,0,0,1-2.9-2.8v-.1a2.88,2.88,0,0,1,2.8-2.9h.1a2.78,2.78,0,0,1,2.9,2.6v.2a2.86,2.86,0,0,1-2.7,2.9.31.31,0,0,1-.2.1m-1.9,25.9a.75.75,0,0,1-.7-.5V83.1a.58.58,0,0,1,.6-.6h3.9a.56.56,0,0,1,.6.5v21.6c0,.4-.2.7-.6.7Z" transform="translate(-0.1 -2.8)"/><path class="cls-1" d="M253.2,81.9c5.5,0,9.2,2.7,9.2,8.9v12.8a1,1,0,0,1-.5.8,29.32,29.32,0,0,1-8.8,1.3c-5.1,0-9.8-1.8-9.8-7.3,0-4.8,4-7,9.6-7a32.53,32.53,0,0,1,4.4.3V91c0-3.1-1.1-4.4-4.4-4.4a11.92,11.92,0,0,0-5.6,1.4.53.53,0,0,1-.8-.1l-.1-.1-1.8-2.7c-.2-.4-.2-.6,0-.8a14.78,14.78,0,0,1,8.6-2.4m-.2,19.4a20.07,20.07,0,0,0,4.2-.5v-5a30,30,0,0,0-4.3-.3c-3.3,0-4.6,1.1-4.6,2.9.1,2,2.1,2.9,4.7,2.9" transform="translate(-0.1 -2.8)"/><path class="cls-1" d="M39.5,127.2a.75.75,0,0,1,.5-.7h4a.75.75,0,0,1,.7.5v29.2a.89.89,0,0,1-.5.8,27.39,27.39,0,0,1-8.9,1.6c-5.8,0-10.1-3-10.1-9.7V144c0-5.7,4-9.3,9.6-9.3a13.75,13.75,0,0,1,4.8,1v-8.5Zm-4.1,26.9a14,14,0,0,0,4.1-.6V140.4a7,7,0,0,0-4.2-1.1c-3.2,0-5,1.4-5,4.8V149c0,3.8,1.9,5.1,5.1,5.1" transform="translate(-0.1 -2.8)"/><path class="cls-1" d="M68,148.2c0,.4-.2.6-.7.6H54V150c0,2.7,1.8,4,4.7,4a10.66,10.66,0,0,0,6.2-2,.53.53,0,0,1,.8.1v.1l1.8,2.4a.61.61,0,0,1,0,.8l-.1.1a13.7,13.7,0,0,1-8.9,3c-5,0-9.6-2.7-9.6-8.6v-6.2c0-6.5,4.8-9,9.7-9s9.5,2.6,9.5,9Zm-9.5-9c-2.6,0-4.5,1.2-4.5,4.5v1.1h9.1v-1.1c0-3.2-2.1-4.5-4.6-4.5" transform="translate(-0.1 -2.8)"/><path class="cls-1" d="M87.1,153.2h14.1c.4,0,.7.2.7.6v3.6a.75.75,0,0,1-.5.7h-19c-.4,0-.6-.2-.6-.7V127.2a.75.75,0,0,1,.5-.7h18.3a.75.75,0,0,1,.7.5v3.7c0,.4-.2.6-.7.6H87.1v8.2H99.5a.75.75,0,0,1,.7.5v3.7a.75.75,0,0,1-.5.7H87.1Z" transform="translate(-0.1 -2.8)"/><path class="cls-1" d="M114,158.6a15,15,0,0,1-8.9-2.9c-.4-.2-.4-.5-.2-.9l1.7-2.9c.2-.4.5-.4.9-.2a11.36,11.36,0,0,0,6.6,2.2c2.3,0,4.1-.9,4.1-2.6s-2.1-2.2-4.1-2.6c-3.3-.6-8.9-2-8.9-7.3,0-4.9,4.6-6.9,9.3-6.9a15.4,15.4,0,0,1,7.6,2,.52.52,0,0,1,.3.7c0,.1-.1.1-.1.2l-1.7,2.8a.65.65,0,0,1-.9.2h0a11.92,11.92,0,0,0-5.6-1.4c-2.6,0-4,1-4,2.4,0,1.8,2,2.2,4.9,2.8,3.6.7,8.2,1.8,8.2,6.9s-3.9,7.5-9.2,7.5" transform="translate(-0.1 -2.8)"/><path class="cls-1" d="M135.4,153.9a12.83,12.83,0,0,0,1.8-.1c.4,0,.7.2.7.6v3.4c0,.4-.2.7-.6.7h0c-.8,0-1.7.1-2.3.1-4.6,0-8.1-2.3-8.1-8.1V130.4c0-.4.2-.6.7-.6h3.3a.73.73,0,0,1,.7.6l.4,5.3h4.7a.75.75,0,0,1,.7.5v3.3a.58.58,0,0,1-.6.6H132v10.1a3.11,3.11,0,0,0,3.4,3.7" transform="translate(-0.1 -2.8)"/><path class="cls-1" d="M149.4,134.7c5.5,0,9.1,2.7,9.1,8.9v12.9a1,1,0,0,1-.5.8,30,30,0,0,1-8.9,1.3c-5.1,0-9.8-1.9-9.8-7.4,0-4.8,4-7,9.6-7a21.83,21.83,0,0,1,4.4.4v-.8c0-3.1-1.1-4.4-4.4-4.4a11.92,11.92,0,0,0-5.6,1.4.53.53,0,0,1-.8-.1.1.1,0,0,0-.1-.1l-1.8-2.7c-.2-.4-.2-.6,0-.8a17.67,17.67,0,0,1,8.8-2.4m-.1,19.5a20.07,20.07,0,0,0,4.2-.5v-5c-1.4-.2-2.8-.3-4.3-.4-3.3,0-4.6,1.1-4.6,2.9,0,2.1,2,3,4.7,3" transform="translate(-0.1 -2.8)"/><path class="cls-1" d="M176.8,127.2a.75.75,0,0,1,.5-.7h4a.75.75,0,0,1,.7.5v29.2a.89.89,0,0,1-.5.8,27.39,27.39,0,0,1-8.9,1.6c-5.8,0-10.1-3-10.1-9.7V144c0-5.7,4-9.3,9.6-9.3a13.75,13.75,0,0,1,4.8,1v-8.5Zm-4.1,26.9a14,14,0,0,0,4.1-.6V140.4a7,7,0,0,0-4.2-1.1c-3.2,0-5,1.4-5,4.8V149c.1,3.8,2,5.1,5.1,5.1" transform="translate(-0.1 -2.8)"/><path class="cls-1" d="M196.1,158.6c-6.1,0-10-3.4-10-8.9v-5.9c0-5.5,4-9.1,10-9.1s10,3.5,10,9.1v5.9c0,5.5-4,8.9-10,8.9m0-4.6c3.1,0,4.9-1.5,4.9-4.3v-5.9c0-2.9-1.8-4.5-4.9-4.5s-4.9,1.6-4.9,4.5v5.9c0,2.8,1.7,4.3,4.9,4.3" transform="translate(-0.1 -2.8)"/><path class="cls-1" d="M234,127.2a.75.75,0,0,1,.5-.7h4a.75.75,0,0,1,.7.5v29.2a.89.89,0,0,1-.5.8,27.39,27.39,0,0,1-8.9,1.6c-5.8,0-10.1-3-10.1-9.7V144c0-5.7,4.1-9.3,9.6-9.3a13.3,13.3,0,0,1,4.8,1v-8.5Zm-4.1,26.9a14,14,0,0,0,4.1-.6V140.4a7,7,0,0,0-4.2-1.1c-3.2,0-5,1.4-5,4.8V149c0,3.8,1.9,5.1,5.1,5.1" transform="translate(-0.1 -2.8)"/><path class="cls-1" d="M263.1,148.2c0,.4-.2.6-.7.6H249V150c0,2.7,1.9,4,4.7,4a10.66,10.66,0,0,0,6.2-2,.53.53,0,0,1,.8.1v.1l1.8,2.4a.61.61,0,0,1,0,.8l-.1.1a13.7,13.7,0,0,1-8.9,3c-5,0-9.6-2.7-9.6-8.6v-6.2c0-6.5,4.8-9,9.7-9s9.5,2.6,9.5,9v4.5Zm-9.5-9c-2.6,0-4.5,1.2-4.5,4.5v1.1h9.1v-1.1a4.26,4.26,0,0,0-4.6-4.5" transform="translate(-0.1 -2.8)"/><path class="cls-1" d="M11.7,179.4c7,0,11,4.1,11,10.7s-4,10.8-11,10.8H5.3v9.3c0,.4-.2.7-.6.7H.7c-.4,0-.6-.2-.6-.7V180.1c0-.4.2-.7.6-.7ZM11.1,196c4.3,0,6.2-1.8,6.2-5.9s-2-5.8-6.2-5.8H5.3V196Z" transform="translate(-0.1 -2.8)"/><path class="cls-1" d="M34.2,211.4c-4.8,0-7.4-3.2-7.4-8.5V180.1a.75.75,0,0,1,.5-.7h3.9a.75.75,0,0,1,.7.5v22.7c0,2.9.9,4.1,2.9,4.1a10.28,10.28,0,0,0,1.7-.1.75.75,0,0,1,.7.5v3.5c0,.4-.1.7-.5.7-.8,0-1.7.1-2.5.1" transform="translate(-0.1 -2.8)"/><path class="cls-1" d="M48.7,187.5c5.4,0,9.2,2.7,9.2,8.9v12.9a1,1,0,0,1-.5.8,29.79,29.79,0,0,1-8.8,1.3c-5.1,0-9.8-1.9-9.8-7.4,0-4.8,4-7,9.6-7a21.83,21.83,0,0,1,4.4.4v-.8c0-3.1-1.2-4.4-4.4-4.4a11.46,11.46,0,0,0-5.7,1.4.53.53,0,0,1-.8-.1l-.1-.1L40,190.7c-.2-.4-.2-.6,0-.8a15.3,15.3,0,0,1,8.7-2.4m-.1,19.4a20.07,20.07,0,0,0,4.2-.5v-5c-1.4-.2-2.8-.3-4.3-.4-3.3,0-4.6,1.1-4.6,2.9,0,2.1,2,3,4.7,3" transform="translate(-0.1 -2.8)"/><path class="cls-1" d="M63.8,210.9a.75.75,0,0,1-.7-.5V190a.89.89,0,0,1,.5-.8,24.16,24.16,0,0,1,8.8-1.7c6.1,0,10.2,2.8,10.2,9.9v12.8a.75.75,0,0,1-.5.7H78.2a.75.75,0,0,1-.7-.5V197.6c0-4.1-1.9-5.4-5.1-5.4a18.41,18.41,0,0,0-4.1.5v17.6a.75.75,0,0,1-.5.7h-.2Z" transform="translate(-0.1 -2.8)"/><path class="cls-1" d="M106.4,201c0,.4-.2.6-.7.6H92.4v1.2c0,2.7,1.8,4.1,4.7,4.1a10.66,10.66,0,0,0,6.2-2,.53.53,0,0,1,.8.1v.1l1.8,2.4a.61.61,0,0,1,0,.8l-.1.1a13.7,13.7,0,0,1-8.9,3c-5,0-9.6-2.7-9.6-8.6v-6.2c0-6.5,4.8-9,9.7-9s9.5,2.6,9.5,9l-.1,4.4Zm-9.5-9c-2.6,0-4.5,1.2-4.5,4.5v1.1h9.1v-1.1c-.1-3.2-2.1-4.5-4.6-4.5" transform="translate(-0.1 -2.8)"/><path class="cls-1" d="M109.1,219.8a16.2,16.2,0,0,1-2.2-.1c-.4,0-.6-.3-.6-.7v-3.2a.67.67,0,0,1,.6-.7h.1c.5,0,1,.1,1.4.1,2,0,2.9-1.1,2.9-4V188.8a.56.56,0,0,1,.5-.6h3.9a.75.75,0,0,1,.7.5v22.6c0,5.3-2.6,8.4-7.3,8.5m4.7-34.8a3,3,0,0,1-2.9-2.8v-.1a2.9,2.9,0,0,1,5.8,0,2.84,2.84,0,0,1-2.9,2.9h0" transform="translate(-0.1 -2.8)"/><path class="cls-1" d="M130.4,187.5c5.5,0,9.1,2.7,9.1,8.9v12.9a1,1,0,0,1-.5.8,30,30,0,0,1-8.9,1.3c-5.1,0-9.8-1.9-9.8-7.4,0-4.8,4-7,9.6-7a21.83,21.83,0,0,1,4.4.4v-.8c0-3.1-1.1-4.4-4.4-4.4a11.92,11.92,0,0,0-5.6,1.4.53.53,0,0,1-.8-.1l-.1-.1-1.8-2.7c-.2-.4-.2-.6,0-.8a17.67,17.67,0,0,1,8.8-2.4m-.2,19.5a20.07,20.07,0,0,0,4.2-.5v-5c-1.4-.2-2.8-.3-4.3-.4-3.3,0-4.6,1.1-4.6,2.9.1,2.1,2.1,3,4.7,3" transform="translate(-0.1 -2.8)"/><path class="cls-1" d="M166.3,187.5c5.5,0,9.5,3.2,9.5,9.4v13.3c0,.4-.2.7-.6.7h-3.8c-.4,0-.6-.2-.6-.7V196.7c0-2.9-1.4-4.6-4.5-4.6a7.65,7.65,0,0,0-3.9,1.1,10.88,10.88,0,0,1,.6,3.6v13.4a.75.75,0,0,1-.5.7h-4a.75.75,0,0,1-.7-.5V196.8c0-3.2-1.5-4.6-4.4-4.6a13.45,13.45,0,0,0-3.5.5v17.6a.75.75,0,0,1-.5.7h-4a.75.75,0,0,1-.7-.5V190a.89.89,0,0,1,.5-.8,19.8,19.8,0,0,1,8-1.7,10,10,0,0,1,6.4,2,12.75,12.75,0,0,1,6.7-2" transform="translate(-0.1 -2.8)"/><path class="cls-1" d="M199.6,201c0,.4-.2.6-.7.6H185.5v1.2c0,2.7,1.9,4.1,4.7,4.1a10.66,10.66,0,0,0,6.2-2,.53.53,0,0,1,.8.1v.1l1.8,2.4a.61.61,0,0,1,0,.8.35.35,0,0,1-.2.1,13.7,13.7,0,0,1-8.9,3c-5,0-9.6-2.7-9.6-8.6v-6.2c0-6.5,4.8-9,9.7-9s9.5,2.6,9.5,9Zm-9.5-9c-2.6,0-4.5,1.2-4.5,4.5v1.1h9.1v-1.1c-.1-3.2-2.1-4.5-4.6-4.5" transform="translate(-0.1 -2.8)"/><path class="cls-1" d="M204.7,210.9a.75.75,0,0,1-.7-.5V190a.89.89,0,0,1,.5-.8,24.16,24.16,0,0,1,8.8-1.7c6.1,0,10.2,2.8,10.2,9.9v12.8c0,.4-.2.7-.6.7h-3.8a.75.75,0,0,1-.7-.5V197.6c0-4.1-1.9-5.4-5.1-5.4a18.41,18.41,0,0,0-4.1.5v17.6a.75.75,0,0,1-.5.7h-.2Z" transform="translate(-0.1 -2.8)"/><path class="cls-1" d="M237.3,206.7a12.83,12.83,0,0,0,1.8-.1c.4,0,.7.2.7.6v3.3c0,.4-.2.7-.6.7h0c-.8,0-1.7.1-2.3.1-4.6,0-8.1-2.3-8.1-8.1V183.1c0-.4.2-.6.7-.6h3.3a.73.73,0,0,1,.7.6l.4,5.3h4.7a.75.75,0,0,1,.7.5v3.3a.58.58,0,0,1-.6.6h-4.8v10.1c-.1,2.4,1.2,3.8,3.4,3.8" transform="translate(-0.1 -2.8)"/><path class="cls-1" d="M252.8,211.4c-6.1,0-10-3.4-10-8.9v-5.9c0-5.5,4-9.1,10-9.1s10,3.5,10,9.1v5.9c0,5.4-4,8.9-10,8.9m0-4.6c3.1,0,4.9-1.5,4.9-4.3v-5.9c0-2.9-1.8-4.5-4.9-4.5s-4.9,1.6-4.9,4.5v5.9c0,2.8,1.8,4.3,4.9,4.3" transform="translate(-0.1 -2.8)"/><path class="cls-1" d="M118.8,253.8c0,.4-.2.6-.7.6H104.7v1.2c0,2.7,1.9,4,4.7,4a10.66,10.66,0,0,0,6.2-2,.53.53,0,0,1,.8.1v.1l1.8,2.4a.61.61,0,0,1,0,.8l-.1.1a13.7,13.7,0,0,1-8.9,3c-5,0-9.6-2.7-9.6-8.6v-6.2c0-6.5,4.8-9,9.7-9s9.5,2.6,9.5,9Zm-9.5-9c-2.6,0-4.5,1.2-4.5,4.5v1.1h9.1v-1.1c0-3.2-2.1-4.5-4.6-4.5" transform="translate(-0.1 -2.8)"/><path class="cls-1" d="M145.1,264.2c-6.5,0-12.3-3.6-12.3-11.3v-10c0-7.7,5.6-11.2,12-11.2a20.86,20.86,0,0,1,10.6,2.9.67.67,0,0,1,.3.8.1.1,0,0,1-.1.1l-2.2,3c-.2.4-.5.4-.9.2a15,15,0,0,0-7.8-2.1c-3.8,0-6.6,2-6.6,6.3v9.9c0,4.4,3.2,6.3,7,6.3a9.9,9.9,0,0,0,6.2-1.9v-6.7h-6c-.4,0-.6-.2-.6-.7v-3.4c0-.4.2-.7.6-.7h10.5c.4,0,.6.2.6.7v12.4a1,1,0,0,1-.2.7,14.67,14.67,0,0,1-11.1,4.7" transform="translate(-0.1 -2.8)"/><path class="cls-1" d="M180.1,253.8c0,.4-.2.6-.7.6H166v1.2c0,2.7,1.9,4,4.7,4a10.66,10.66,0,0,0,6.2-2,.53.53,0,0,1,.8.1v.1l1.8,2.4a.61.61,0,0,1,0,.8l-.1.1a13.7,13.7,0,0,1-8.9,3c-5,0-9.6-2.7-9.6-8.6v-6.2c0-6.5,4.9-9,9.7-9s9.5,2.6,9.5,9v4.5Zm-9.5-9c-2.6,0-4.5,1.2-4.5,4.5v1.1h9.1v-1.1c0-3.2-2.1-4.5-4.6-4.5" transform="translate(-0.1 -2.8)"/><path class="cls-1" d="M192.6,264.2a15,15,0,0,1-8.9-2.9c-.4-.2-.4-.5-.2-.9l1.7-2.9c.2-.4.5-.4.9-.2a11.36,11.36,0,0,0,6.6,2.2c2.3,0,4.1-.9,4.1-2.5s-2.1-2.2-4.1-2.6c-3.3-.6-8.9-2-8.9-7.3,0-4.9,4.6-6.9,9.3-6.9a15.4,15.4,0,0,1,7.6,2,.55.55,0,0,1,.3.7.1.1,0,0,1-.1.1l-1.7,2.8a.65.65,0,0,1-.9.2h0a11.92,11.92,0,0,0-5.6-1.4c-2.6,0-4,1-4,2.4,0,1.8,2,2.2,4.9,2.8,3.6.7,8.2,1.8,8.2,6.9s-3.9,7.5-9.2,7.5" transform="translate(-0.1 -2.8)"/><path class="cls-1" d="M214.5,259.5a12.83,12.83,0,0,0,1.8-.1c.4,0,.7.2.7.6v3.3c0,.4-.2.7-.6.7h0c-.8,0-1.7.1-2.3.1-4.6,0-8.1-2.3-8.1-8.1V235.9c0-.4.2-.6.7-.6H210a.73.73,0,0,1,.7.6l.4,5.3h4.7a.75.75,0,0,1,.7.5V245a.58.58,0,0,1-.6.6H211v10.1c0,2.4,1.2,3.8,3.5,3.8" transform="translate(-0.1 -2.8)"/><path class="cls-1" d="M229.1,240.3c5.5,0,9.1,2.7,9.1,8.9v12.9a1,1,0,0,1-.5.8,30,30,0,0,1-8.9,1.3c-5.1,0-9.8-1.9-9.8-7.4,0-4.8,4-7,9.6-7a21.83,21.83,0,0,1,4.4.4v-.8c0-3.1-1.1-4.4-4.4-4.4a11.92,11.92,0,0,0-5.6,1.4.53.53,0,0,1-.8-.1l-.1-.1-1.8-2.7c-.2-.4-.2-.6,0-.8a17.67,17.67,0,0,1,8.8-2.4m3.2-2a7.6,7.6,0,0,1-3.3-1.1,6,6,0,0,0-2.5-1c-.8,0-1.3.7-1.7,1.4a.68.68,0,0,1-.8.4.1.1,0,0,1-.1-.1l-2.1-1.2a.57.57,0,0,1-.4-.7.1.1,0,0,1,.1-.1c.6-1.6,2-3.6,4.1-3.6a7.6,7.6,0,0,1,3.3,1.1,8.8,8.8,0,0,0,2.7,1c.7,0,1-.4,1.5-1.4a.57.57,0,0,1,.7-.4c.1,0,.1,0,.2.1l2.1,1.2a.62.62,0,0,1,.4.7c-.5,1.5-1.9,3.7-4.2,3.7m-3.4,21.5a20.07,20.07,0,0,0,4.2-.5v-5c-1.4-.2-2.8-.3-4.3-.4-3.3,0-4.6,1.1-4.6,2.9.1,2.1,2.1,2.9,4.7,3" transform="translate(-0.1 -2.8)"/><path class="cls-1" d="M252.8,264.2c-6.1,0-10-3.4-10-8.9v-5.9c0-5.5,4-9.1,10-9.1s10,3.5,10,9.1v5.9c0,5.5-4,8.9-10,8.9m0-4.6c3.1,0,4.9-1.5,4.9-4.3v-5.9c0-2.9-1.8-4.5-4.9-4.5s-4.9,1.6-4.9,4.5v5.9c0,2.8,1.8,4.3,4.9,4.3" transform="translate(-0.1 -2.8)"/><path class="cls-1" d="M614.5,159a2.05,2.05,0,0,0,2.3-1.8v-9.1c0-10.5-.5-25.3-1.3-38.2l.6-.1c1.8,4.8,7.2,17.5,10.7,25.3l2,4.4a2.7,2.7,0,0,0,2.7,1.8h13.2a2.59,2.59,0,0,0,2.7-1.8l2-4.4c3.5-7.8,8.9-20.4,10.7-25.3l.6.1c-.8,12.9-1.3,27.7-1.3,38.2v8.6a2.22,2.22,0,0,0,1.8,2.4h18.3a2.05,2.05,0,0,0,2.3-1.8v-80a2.06,2.06,0,0,0-1.9-2.3H659.3a2.84,2.84,0,0,0-2.7,1.8L649.1,92c-3.9,7.9-8.9,20-10.9,25h-.5c-2-5-7-17.2-10.9-25l-7.5-15.2a2.84,2.84,0,0,0-2.7-1.8H596.5a2.06,2.06,0,0,0-2.3,1.9v79.8a2.22,2.22,0,0,0,1.8,2.4h.5ZM719.2,96c-10.6,0-19.5,2.9-25,6.2-.8.6-.8,1.5,0,2.8l5.4,11.4a2,2,0,0,0,2.8,1c.1-.1.3-.1.4-.2a35.32,35.32,0,0,1,13.3-2.7c6.8,0,8.2,3.3,8.2,7.8v.2a59,59,0,0,0-8.3-.6c-16.7,0-25.5,6.1-25.5,17.9,0,13.3,9,20.8,28.9,20.8a94.08,94.08,0,0,0,24.7-3.2,2.43,2.43,0,0,0,2-2.6V124.3c0-19-9-28.3-26.9-28.3m.1,47.8c-4.3,0-6.7-1.8-6.7-4.8,0-2.7,2.2-4.2,6.6-4.2a23.06,23.06,0,0,1,5.2.6v8a29.22,29.22,0,0,1-5.1.4m64.1-2.3c-4.5,0-6.6-2.3-6.6-7.5V117.6h8.7a2.05,2.05,0,0,0,2.3-1.8v-14a2.05,2.05,0,0,0-1.8-2.3h-9.5L775,85.3a2.22,2.22,0,0,0-2.2-2.2H757.4a2.05,2.05,0,0,0-2.3,1.8v52.4c0,14.7,8.8,23.3,23.7,23.3a28.29,28.29,0,0,0,8.2-.9,2.59,2.59,0,0,0,1.9-2.7V143.3c0-1.6-.9-2.2-2.6-2-1,.1-2,.2-2.9.2m40.5,19.1c18.1,0,28.8-9.5,28.8-26V122.1c0-16.6-10.7-26.1-28.8-26.1s-28.8,9.5-28.8,26.1v12.6c0,16.4,10.7,26,28.8,25.9m0-19.1c-4.3,0-6.7-2.5-6.7-6.8V122.1c0-4.3,2.3-6.9,6.7-6.9s6.7,2.6,6.7,6.9v12.6c0,4.3-2.4,6.8-6.7,6.8M626.7,257.4a44.91,44.91,0,0,0,30.7-12.2,3.86,3.86,0,0,0,1.1-2.7V208a2.22,2.22,0,0,0-1.8-2.4H627.2a2.12,2.12,0,0,0-2.4,1.8v14.1a2.05,2.05,0,0,0,1.8,2.3h10.3v9.8a26.75,26.75,0,0,1-10.1,2c-7.8,0-11.5-4.2-11.5-11.5V203c0-6.9,4-11.2,12-11.2,6.2,0,11.9,1.3,16,3.6,1.3.8,2.3.7,3.2-.6l9.8-14a2.09,2.09,0,0,0-.2-3,1.38,1.38,0,0,0-.4-.3,56.59,56.59,0,0,0-28.3-7.5C605,170,592,182.1,592,202.1v22.7c-.1,20.5,12.5,32.6,34.7,32.6m61.6-1.6a2.05,2.05,0,0,0,2.3-1.8V212.8a19.63,19.63,0,0,1,7.6-1.3,32.72,32.72,0,0,1,5.4.4,2,2,0,0,0,2.4-1.3,2.2,2.2,0,0,0,.1-.8v-13a2.43,2.43,0,0,0-2.1-2.6,66.11,66.11,0,0,0-10.8-1.2,49.62,49.62,0,0,0-22.7,5.1,2.76,2.76,0,0,0-1.6,2.8v52.8a2.22,2.22,0,0,0,1.8,2.4h.5Zm52.1,1.6c18.1,0,28.8-9.5,28.8-26V218.9c0-16.6-10.7-26.1-28.8-26.1s-28.8,9.5-28.8,26.1v12.6c0,16.4,10.7,26,28.8,25.9m0-19.1c-4.3,0-6.7-2.5-6.7-6.8V218.9c0-4.3,2.3-6.9,6.7-6.9s6.7,2.6,6.7,6.9v12.6c0,4.3-2.4,6.8-6.7,6.8m60,19.1c19.2,0,28.1-7.3,28.1-21.5,0-10.6-7.6-17.4-22.2-19.7-7.2-1.1-8.2-1.8-8.2-3.6,0-2.1,1.9-2.6,5.2-2.6a29.5,29.5,0,0,1,12.7,2.9,2.11,2.11,0,0,0,3-.5c.1-.1.1-.2.2-.3l6.7-10.7c.8-1.4.6-2.6-.8-3.3a46.6,46.6,0,0,0-21.6-5.3c-17.7,0-26.9,7.4-26.9,20.1,0,10.8,7.6,17.7,23.8,20.2,4.1.6,6.2,1.6,6.2,3.2,0,1.9-2.1,2.9-6.1,2.9a29.24,29.24,0,0,1-15.9-4.7c-1.3-.8-2.3-.6-3.2.8l-6.6,11a2.31,2.31,0,0,0,.4,3.1c.1.1.2.1.3.2a45,45,0,0,0,24.9,7.8m59,0c19.2,0,28.1-7.3,28.1-21.5,0-10.6-7.6-17.4-22.2-19.7-7.2-1.1-8.2-1.8-8.2-3.6,0-2.1,1.9-2.6,5.2-2.6a29.5,29.5,0,0,1,12.7,2.9,2.12,2.12,0,0,0,3-.5.52.52,0,0,0,.2-.4l6.7-10.7c.8-1.4.6-2.6-.8-3.3a46.6,46.6,0,0,0-21.6-5.3c-17.7,0-26.9,7.4-26.9,20.1,0,10.8,7.6,17.7,23.8,20.2,4.1.6,6.2,1.6,6.2,3.2,0,1.9-2.1,2.9-6.1,2.9a29.24,29.24,0,0,1-15.9-4.7c-1.3-.8-2.3-.6-3.2.8l-6.6,11a2.21,2.21,0,0,0,.4,3.1c.1.1.2.1.3.2a44.31,44.31,0,0,0,24.9,7.9m63.3-.1c18.1,0,28.8-9.5,28.8-26V218.9c0-16.6-10.7-26.1-28.8-26.1s-28.8,9.5-28.8,26.1v12.6c0,16.4,10.7,26,28.8,26m0-19.2c-4.3,0-6.7-2.5-6.7-6.8V218.9c0-4.3,2.3-6.9,6.7-6.9s6.7,2.6,6.7,6.9v12.6c0,4.3-2.4,6.8-6.7,6.8" transform="translate(-0.1 -2.8)"/><rect class="cls-1" x="287.4" width="283.5" height="283.5"/><rect class="cls-1" x="972.6" width="23.9" height="283.5"/><path class="cls-2" d="M411.9,101.4h0c.1-.1.1,0,0,0" transform="translate(-0.1 -2.8)"/><path class="cls-2" d="M502.5,76.1C471.6,51.4,456.1,48.8,448.3,49s-3.6,7.3-3.6,7.3c5.1,8.6.4,9.3.4,9.3-3.6.6-6.8-3.1-8.3-5,0,0-2.7-3.4-1.3-11.4,0,0,5.6,1.7,6.2-.5.8-2.6-3.1-2.5-3.1-2.5s4.2-.5,4.6-3a16.2,16.2,0,0,1,1.2-4.3,14.13,14.13,0,0,1-8.2,3.9c-2,0-.3-4.5-.3-4.5a11.83,11.83,0,0,0-2.8,2.2c-2,2.3-3,2-7.1,1.7a5,5,0,0,0-4.4,2.2,9.23,9.23,0,0,0-3.7-.5c-3.9.5-3.4,2.8-3.4,2.8a7.78,7.78,0,0,1,4-.8c2.2.2,2.6.7,2.6,1.4,0,1.5-3.1,1.1-3.1,1.1s.2.4,1.6.8,4-.3,4.3,2.4a22.36,22.36,0,0,1-1.3,9.2,8.64,8.64,0,0,1-2.6,3.1h0l-.6.5a17.28,17.28,0,0,0-4.2,5.8,8.84,8.84,0,0,1,2.2-4.8,4.45,4.45,0,0,1-3.2.4s-4.7-.8.4-9.3c0,0,4.2-7.1-3.6-7.3s-23.3,2.5-54.2,27.1c-6.1,4.8-14.1,10.9-8.1,11.2,0,0,2.7,0,7.2-2.7h0c1.4-1.4,12.2-12.2,14.9-12.6,0,0-3,2.4-12.5,12.8a33.6,33.6,0,0,0,22.9-6.2,31.68,31.68,0,0,1,4.1-2.1,17.38,17.38,0,0,0-1.5,1.3l-2.3,2.4,3.3-.6a14.92,14.92,0,0,1,2.1-.2L388,81l.5,4c.2,1,.5,2,.8,3,1.5,4,8.5,13.8,14.5,13.8h1.1l5.7-.1a9.23,9.23,0,0,1-2.5-.9c-3.9-2.1,0,0-4.3,0-4.5,0-10.1-6.7-12.6-11.2h0c-.2-.3-.3-.6-.5-.9l-.1-.1c-.1-.3-.3-.6-.4-.9-.3-.9-.6-1.9-.8-2.8,1.6,1.8,6.2,4.5,6.7.3.4-2.9-4.1-5.7-6.6-6.3a14,14,0,0,0-5,0c5.4-5.5,12-2.2,17.5,4.3,2.4,2.8,8.9,2.5,7.1-2.4a8.66,8.66,0,0,0-6.5-5.2h-.1c7,.4,12.7.7,16.8,6.9a19.68,19.68,0,0,0-.6-3.5c-1.3-4.4-.9-9.4,4.8-10.3-2.4,1.6-.2,4.9,2.1,2.8,1.3-1.2,1.7-1.9,1.2-3.4-.3-1.1-.5-2.8-1.3-3.6,4,2,5.6,6,2.8,9.9-.5.8-2,1.9-1.6,3s1.5,1,2.4.4c1.2-.8,2.4-2.7,2-3.9,1.5,1.8,1.1,4.3.7,6.6A25.12,25.12,0,0,1,442.9,76a27.37,27.37,0,0,1,7-.2,11.57,11.57,0,0,1,4.5,1.2c-4.5.9-4.3,3.5-4.3,4.5,6.9,1.8,10.4-2.9,12.2-6.3,2.2,4.4.9,7.8-2.2,10.5,6.5-5.6,14.6-3.1,17,1.2A9.74,9.74,0,0,0,468,90c-2,2.1-6.7,8.4-10.5,10.1l-.4.2a1.69,1.69,0,0,1-.5.2h-.2a1.48,1.48,0,0,1-.7.1h-1.4c-.6,0-1,.1-1.3.1h-.5l-.2-.1h0l-.2-.1h0a5.9,5.9,0,0,1-.8-.4,18.4,18.4,0,0,0-1.9-.9c-2.6-1.1-7.6,1.3-10.1,0l-13.9.2a16.16,16.16,0,0,1-3.7,1.9h1.5a3.29,3.29,0,0,0,2.5-.8l13.3-.2a5.87,5.87,0,0,0,2.3.4,18.59,18.59,0,0,0,3.3-.4l2.2-.3h1.7a4.33,4.33,0,0,1,.5.1c1.3.6,1.9.9,2.4,1.1a3.45,3.45,0,0,0,1.8.5h.9a13.57,13.57,0,0,0,1.8-.1,7.45,7.45,0,0,0,3.8-1.5h3l1-3.6c1.3-1.3,2.5-2.8,3.8-4.2.6-.7,1-1.2,1.4-1.7a8.79,8.79,0,0,1,8.1-2.8l1.3.2,1.9.9c2.5-5-1.9-8.7-3.9-10.2a8,8,0,0,1-2.2-2.3,34.82,34.82,0,0,1,4.3,2.2h.1c10.6,7.2,20.2,6.5,23,6.1-9.8-10.6-12.7-12.9-12.7-12.9,2.9.4,15,12.7,15,12.8,4.3,2.5,6.9,2.5,6.9,2.5,5.9-.1-2.1-6.2-8.2-11m-74.9-31a4.53,4.53,0,0,1-1.6.3.77.77,0,0,1-.8.7c-.4,0-.6-.3-.7-.7h-.2a.76.76,0,0,0-.4.2c-.1.1-.1.1-.2.1h-.1c-.1,0-.1-.1-.1-.2a.94.94,0,0,1,.6-.8,1.72,1.72,0,0,1,1.2-.2h.9a4.87,4.87,0,0,0,1.2-.1.52.52,0,0,0,.4-.2c0-.1.1-.1.2-.1h0a.22.22,0,0,1,.2.2,1.56,1.56,0,0,1-.6.8" transform="translate(-0.1 -2.8)"/><path class="cls-2" d="M411.8,101.2l-.5-.1a.9.9,0,0,0,.5.1" transform="translate(-0.1 -2.8)"/><path class="cls-2" d="M409.5,99.7l-.5.2c.5.2,1.1.6,2,1-.5-.4-1-1.1-1.5-1.2" transform="translate(-0.1 -2.8)"/><path class="cls-2" d="M411,100.9a.52.52,0,0,0,.4.2l-.2-.1-.2-.1" transform="translate(-0.1 -2.8)"/><path class="cls-2" d="M419.4,100.5h-4a20.83,20.83,0,0,1-2.5,0c-.2,0-.4.8-1.1.8.3.1.7.2,1,.3a15.64,15.64,0,0,0,8-1.1,3.3,3.3,0,0,0-1.4,0" transform="translate(-0.1 -2.8)"/><path class="cls-2" d="M429.2,229.5h-.4a45,45,0,0,1-18.1-3.2c-9.4-3.9-17.2-11.2-23.3-21.9-.8-1.2-6-9.6-6-29.5V111.4a8.18,8.18,0,0,0-.5-4.1l.7-3.2,12.6-8.5.9-.6a5.22,5.22,0,0,0,1.9,1.4s2,1.4,8.1,1.4h47.8c6.2,0,8.8-1.6,8.8-1.6a13.3,13.3,0,0,0,1.9-1.4l.1.8,12.6,8.5.7,3.2a8.18,8.18,0,0,0-.5,4.1v63.5c0,19.9-5.1,28.3-5.9,29.5-14.3,25.1-33.9,25.1-41.4,25.1m-43-117.8v63.2c0,19.3,5.1,26.8,5.1,26.9l.1.2c13,22.8,30.7,22.8,37.4,22.8h.4c7.3,0,24.4,0,37.4-22.8l.1-.2c0-.1,5.1-7.5,5.1-26.9V111.7a18.6,18.6,0,0,1,.3-4.7l-9.5-6.3c-1.6,1-4.6,1.9-9.8,1.9H405c-5.2,0-8.2-.8-9.8-1.9l-9.4,6.3a14.73,14.73,0,0,1,.4,4.7" transform="translate(-0.1 -2.8)"/><path class="cls-2" d="M392,195.7a1.23,1.23,0,0,1-1-.5,1.17,1.17,0,0,1,.3-1.7c.1-.1,12.1-8.8,17.1-13.7,15-14.8,23.1-9.2,25.2-7.2a1.46,1.46,0,0,0,1.9-.3c1.2-1.2,2.5-1.7,3.6-1.4s2,1.3,2.5,3a10.69,10.69,0,0,0,6.8,7.5,22.41,22.41,0,0,1,9.2,7.6,12.6,12.6,0,0,0,9.3,3.8,1.22,1.22,0,0,1,1.2,1.2,1.28,1.28,0,0,1-1.1,1.2,15,15,0,0,1-11.3-4.7l-.1-.1s-3.5-5-8.2-6.8a13.29,13.29,0,0,1-8.3-9.1c-.3-1-.6-1.3-.8-1.4s-.6.1-1.3.8a3.76,3.76,0,0,1-5.2.4c-7-6.8-19.4,4.8-21.8,7.1-5.1,5-16.9,13.5-17.4,13.9,0,.3-.3.3-.6.4" transform="translate(-0.1 -2.8)"/><path class="cls-2" d="M471.7,198.3a.9.9,0,0,1-.5-.1c-46.3-9.1-82.8-.1-83.1,0a2.38,2.38,0,1,1-1.2-4.6c.4-.1,37.8-9.4,85.2,0a2.4,2.4,0,0,1,1.9,2.8h0a2.12,2.12,0,0,1-2.3,1.9" transform="translate(-0.1 -2.8)"/><path class="cls-2" d="M409.7,137.2l9-23a2.22,2.22,0,0,0,2.3-1.1,2.05,2.05,0,0,0,0-1.1h0l-1.4-4.7-4.3,2.6-.2.1h0a2.65,2.65,0,0,0-.5.6,2.09,2.09,0,0,0,1,2.3l-.8,1.9s-.7,1.4-4.4,0a4.14,4.14,0,0,1-2.9-4.8s-14,3.2-6.7,17.3a4.28,4.28,0,0,1,5.4-1.6c3.8,1.5,3.2,3.1,3.2,3.1l-3.2,8.2" transform="translate(-0.1 -2.8)"/><path class="cls-2" d="M402.7,146.3l-6.8,17.3a1.66,1.66,0,1,0,3,1.4c0-.1.1-.1.1-.2l6.6-16.9" transform="translate(-0.1 -2.8)"/><path class="cls-2" d="M419.4,115.7l-7.7,19.7h36.9l5.7-19.7Zm19.8,14.4-4.1-2.4.6,4.9h-9.2l4.1-4.9-5.7,2.4,3.2-9.2,4.1,2.4-.6-4.9h9.2l-4.1,4.9,5.7-2.4Z" transform="translate(-0.1 -2.8)"/><path class="cls-2" d="M452.4,152.3l10.6-4.7L455.5,135l-10.2,7.9c.9,1.6,4,7,7.1,9.4" transform="translate(-0.1 -2.8)"/><path class="cls-2" d="M406.5,146.8c0,.1.6,1.9,4.2,1.3l3.4-3.1a13.36,13.36,0,0,1-1.6-3.9c-.6-2.4-1.2-3.3-2.7-3.3-.6,0-1.2-.1-1.8-.1-1.3-.1-3-.2-3.4.1a1.73,1.73,0,0,0-.5.5l.2.2a13.32,13.32,0,0,0,1.9.5c1.7.4,2.6.6,3,1.1a1.7,1.7,0,0,1,.1.7v.1a6.1,6.1,0,0,0,.8,5.7l-1,.8a7.46,7.46,0,0,1-.7-1.2,8.24,8.24,0,0,1-1.9.6Z" transform="translate(-0.1 -2.8)"/><path class="cls-2" d="M432.3,155.6a41.4,41.4,0,0,0,13.8-8.9c-.8-1.2-1.4-2.3-1.8-3l-3.2,2.5a76.61,76.61,0,0,1-9.6,5.5,27,27,0,0,0,.8,3.9" transform="translate(-0.1 -2.8)"/><path class="cls-2" d="M435.4,163.6c-3.9-3.4-4.9-9.5-5.1-11.3a7.37,7.37,0,0,1-1.4.4,19.73,19.73,0,0,1-.7,2.6,20.48,20.48,0,0,1-4.5,8,9.94,9.94,0,0,0,6,2.1,11.6,11.6,0,0,0,5.7-1.8" transform="translate(-0.1 -2.8)"/><path class="cls-2" d="M446.8,147.8a42.35,42.35,0,0,1-14.2,9,13.34,13.34,0,0,0,3.9,6l.1-.1c6.7-4.8,12.5-8.5,14.6-9.8a24.14,24.14,0,0,1-4.4-5.1" transform="translate(-0.1 -2.8)"/><path class="cls-2" d="M421.6,163.6l.8-.8a31.37,31.37,0,0,0,4.6-7.9,18.63,18.63,0,0,0,.7-3.4c-1.9-.4-8-1.7-12.7-5.4l-3.2,2.9c.6,1.8,3.9,9.9,9.8,14.6" transform="translate(-0.1 -2.8)"/><path class="cls-2" d="M407.6,144.5c0-.2-.1-.4-.1-.6a2.46,2.46,0,0,1-1.2.1,9.9,9.9,0,0,1-4.1-1,1.08,1.08,0,0,0,.2.8c1.1,1.2,3.9,1,5.2.7" transform="translate(-0.1 -2.8)"/><path class="cls-2" d="M403.5,145.7c.6.4,1.8.7,4.4-.1a.6.6,0,0,1-.1-.4,9.86,9.86,0,0,1-2.4.3,5.87,5.87,0,0,1-2.3-.4.68.68,0,0,0,.4.6" transform="translate(-0.1 -2.8)"/><path class="cls-2" d="M403.5,139.5a.78.78,0,0,1-.4-.4.52.52,0,0,0-.4.2.85.85,0,0,0,0,.7c.3.8,3.5,1.6,5,1.6.1-.3.1-.7.2-1a14.62,14.62,0,0,0-2-.5,5.33,5.33,0,0,1-2.4-.6" transform="translate(-0.1 -2.8)"/><path class="cls-2" d="M407.5,143.2h0v-.7c-1.2-.1-4.1-.6-5.2-1.6a1.41,1.41,0,0,0-.1,1.4c.7.7,4.3,1.4,5.3.9" transform="translate(-0.1 -2.8)"/><path class="cls-2" d="M389.6,238.2l-3.3,3.9c2.3,1.1,3.6,1.6,3.6,1.6l2.1-4.6c-.8-.3-1.7-.6-2.4-.9" transform="translate(-0.1 -2.8)"/><path class="cls-2" d="M384.1,235.7a.48.48,0,0,1-.2-.6h0l3.7-6.4-10.1,8.8a85.35,85.35,0,0,0,7.9,4.3l3.3-3.9c-2.8-1.3-4.5-2.2-4.6-2.2" transform="translate(-0.1 -2.8)"/><path class="cls-2" d="M384.1,235.7a.48.48,0,0,1-.2-.6h0l3.7-6.4L372.3,242l-1.8,9,9.2-2.4,9-10.7c-2.8-1.3-4.5-2.2-4.6-2.2" transform="translate(-0.1 -2.8)"/><path class="cls-2" d="M486.4,241.9l-15.3-13.3,3.7,6.4a.3.3,0,0,1,0,.4c0,.1-.1.2-.2.3s-1.7.9-4.5,2.1l8.9,10.6,9.2,2.4Z" transform="translate(-0.1 -2.8)"/><path class="cls-2" d="M467.1,239.1l1.9,4.1c.5-.2,1.6-.7,3.1-1.4l-2.9-3.5a18,18,0,0,0-2.1.8" transform="translate(-0.1 -2.8)"/><path class="cls-2" d="M398.2,219.4l-3.3,2.9c1.2.6,2.9,1.5,4.9,2.3l2-2.4Z" transform="translate(-0.1 -2.8)"/><path class="cls-2" d="M460.3,219.2l-3.5,2.8,2.2,2.7c2-.9,3.7-1.7,4.9-2.3Z" transform="translate(-0.1 -2.8)"/><path class="cls-2" d="M355.7,204.2l-1.5-1.8-2,1.6,1.5,1.8a1.28,1.28,0,0,0,1.8.2,1.27,1.27,0,0,0,.2-1.8h0" transform="translate(-0.1 -2.8)"/><path class="cls-2" d="M347.4,181.6l-11.3,13.7c10.9,20.8,28.5,34.2,40.5,41.6L389,226.1l1.1-1.9c-26.8-12.8-42.7-42.6-42.7-42.6m-4.3,17,4.7-7.3,1,1.4-3.8,5.5,6.5-1.6,1,1.4-8.5,1.8Zm3.4,4.6,6.4-4.9.9,1.2-6.4,4.8Zm6.3,7.7h0l-1.2-1.3.6-3.5-.9-1.1-2.1,1.7-1-1.2,6.2-5.1c.8,1,1.6,2,2.4,2.9a2.78,2.78,0,0,1,0,3.8l-.2.2a2.43,2.43,0,0,1-3.2,0Zm2,2.2,4.9-4.5-1.7-1.9,1-.9,4.5,4.8-1,.9-1.7-1.9-4.9,4.6Zm6,6.4a3.44,3.44,0,0,1-.5-4.7l.3-.3,3.1-3.3,1.1,1-3.1,3.4a2,2,0,0,0-.2,2.8l.2.2a2,2,0,0,0,2.7,0c.1-.1.2-.2.2-.3l3.1-3.3,1.1,1-3.1,3.4a3.31,3.31,0,0,1-4.6.6,2.19,2.19,0,0,0-.3-.5m5.3,4.5,4.2-5.1-2-1.6.9-1.1,5.1,4.2-.9,1.1-2-1.6-4.2,5.1Zm12.5,1.2-3.7-2.6-1.1,1.5,3.5,2.5-.8,1.1-3.5-2.5-1,1.5,3.7,2.6-.9,1.2-4.9-3.4c1.5-2.2,3.1-4.4,4.6-6.6l4.9,3.5Z" transform="translate(-0.1 -2.8)"/><path class="cls-2" d="M401.8,231.7l-2.1-.8-1,2.6,2.1.8a1.43,1.43,0,0,0,1.2-2.6c0,.1-.1,0-.2,0" transform="translate(-0.1 -2.8)"/><path class="cls-2" d="M429.2,236.5a2.94,2.94,0,0,0-2.7,2.9,2.89,2.89,0,0,0,2.6,2.7,2.74,2.74,0,0,0,2.7-2.6v-.3a2.56,2.56,0,0,0-2.4-2.7h-.2" transform="translate(-0.1 -2.8)"/><polygon class="cls-2" points="444.5 236.4 447.4 235.9 445.3 232.8 444.5 236.4"/><path class="cls-2" d="M466.2,222a74.24,74.24,0,0,1-36.9,9.7,75.87,75.87,0,0,1-36.9-9.7l-7.5,13.1c3.2,1.6,23.5,11.1,44.4,11.1,21.2,0,41.2-9.5,44.4-11.1Zm-65.9,13.6-2.1-.8-.8,2.2-1.4-.5,2.9-7.5c1.2.4,2.4.9,3.5,1.3a2.85,2.85,0,1,1-1.8,5.4.37.37,0,0,1-.3-.1m8.5,5.2-5.4-1.5,2.2-7.7,1.5.4-1.8,6.4,4,1.1Zm4,1a3.36,3.36,0,0,1-2.9-3.7c0-.2.1-.3.1-.5l.9-4.5,1.5.3-.9,4.5a2,2,0,0,0,1.3,2.5c.1,0,.2.1.3.1a2,2,0,0,0,2.4-1.8l.9-4.5,1.5.3L417,239a3.17,3.17,0,0,1-3.5,2.9,2,2,0,0,0-.7-.1m8.7-3.9c1.6.4,3.1,1,3,2.9s-1.8,2.4-3.6,2.2-2.8-.8-3.3-2.3l1.3-.5a2.26,2.26,0,0,0,2.1,1.5c1,.1,1.9-.1,2-1s-.7-1.1-1.7-1.4c-1.6-.4-3.1-.9-2.9-2.7.2-1.6,1.9-2.1,3.3-2a3.19,3.19,0,0,1,3,1.9l-1.2.5a2.65,2.65,0,0,0-1.8-1.1c-1.1-.1-1.7.3-1.8.9s.7.9,1.6,1.1m11,5.9-1-1a4.65,4.65,0,0,1-2.3.6,4.2,4.2,0,1,1,4.2-4.3,5,5,0,0,1-.8,2.6l.9.9Zm5.7-.7a3.36,3.36,0,0,1-3.8-2.8v-.5l-.4-4.6,1.5-.1.4,4.6a2,2,0,0,0,2,2h.3a2,2,0,0,0,1.8-2.4l-.4-4.6,1.5-.1.4,4.6a3.22,3.22,0,0,1-2.6,3.8,2,2,0,0,1-.7.1m11.2-1.8-.9-1.4-4.1.8-.4,1.6-1.6.3,2.1-8.5,1.6-.3,5,7.2Zm9-2.4-1.7-5.5-1.5,4.1-.3.1-3.4-2.6,1.6,5.6-1.5.4-2.2-7.7,1.7-.5,3.4,2.6,1.4-4,1.7-.5,2.2,7.7Z" transform="translate(-0.1 -2.8)"/><path class="cls-2" d="M502.9,203a2.57,2.57,0,0,0,.2,3.7c.1.1.2.1.2.2a2.62,2.62,0,0,0,3.4-4,2.66,2.66,0,0,0-3.7-.1c.1,0,0,.1-.1.2" transform="translate(-0.1 -2.8)"/><polygon class="cls-2" points="489.5 218 486.2 216.2 487.1 219.8 489.5 218"/><path class="cls-2" d="M498.2,208.4l-1.6,1.6,1.8,1.8,1.6-1.6a1.27,1.27,0,0,0-1.7-1.9c-.1,0-.1,0-.1.1" transform="translate(-0.1 -2.8)"/><path class="cls-2" d="M511.3,182.4c-2.5,4.4-18.2,30.8-43.1,42.4l13.4,11.6c12-7.3,29.5-20.6,40.4-41.2Zm-19,40-1.5-.8-3.3,2.6.4,1.6-1.3,1-2-8.5,1.3-1,7.7,4.1Zm4.2-3.3a3.32,3.32,0,0,1-4.7,0l-.3-.3-3-3.5,1.1-1,3,3.5a2,2,0,0,0,2.8.5l.2-.2a1.92,1.92,0,0,0,.3-2.7l-.3-.3-3-3.5,1.1-1,3,3.4a3.29,3.29,0,0,1,.2,4.6c-.1.2-.3.3-.4.5m7.3-7.2-3.5-.3-1,1,1.9,1.9-1.1,1.1-5.6-5.6,2.7-2.7a2.57,2.57,0,0,1,3.7-.3l.2.2a2.33,2.33,0,0,1,.3,3.2l3.7.2.1.1Zm4.3-4.4a4,4,0,0,1-5.5.7l-.3-.3a4.12,4.12,0,1,1,5.2-6.4c.1.1.2.1.2.2a4,4,0,0,1,.7,5.5l-.3.3" transform="translate(-0.1 -2.8)"/><path class="cls-2" d="M474.7,188.9h0c4.6-.6,10.8-5.2,21.2-13.7,9.9-8.2,10.4-34.2,7.9-45.3-2.6-11.4-4.5-23.5-4.6-23.6l.9-.2c.8,3.4,7.2,23,7.3,23.2,3.8,15.6,1,32.7.2,36.8a29,29,0,0,1,4.8-1.4c1.2-.3,2.5-.5,3.8-.9a31.76,31.76,0,0,0,10.2-5.2,72.49,72.49,0,0,1,6.7-4.6l2.6-1.5-1.9,2.2c-8.3,9.7-15,12.1-19.4,13.1-4,.9-10.3,6.6-23.1,17.9l-1.7,1.6c-11,9.7-17.6,10.2-16.8,6.7a4.81,4.81,0,0,1,1.9-2.7l.4-.6Z" transform="translate(-0.1 -2.8)"/><path class="cls-2" d="M504,187.7a4.45,4.45,0,0,0-2.5-2.7h0a3.53,3.53,0,0,0-2-.2,4.13,4.13,0,0,0-.2-2.9,4,4,0,0,1,4.2.3,3.92,3.92,0,0,1,.5,5.5h0" transform="translate(-0.1 -2.8)"/><path class="cls-2" d="M498.8,186h.1a3.6,3.6,0,0,1,2.3-.1h0a3,3,0,0,1,2.1,2.7,4.71,4.71,0,0,1-1.1,2.6c-1.5,2-4,2.6-5.5,1.4a3.25,3.25,0,0,1-1.1-3.2,7.06,7.06,0,0,1,3.2-3.4" transform="translate(-0.1 -2.8)"/><path class="cls-2" d="M493.1,183a3.77,3.77,0,0,1,5-1.1c1.2,1.1.5,2.9.3,3.4a9.3,9.3,0,0,0-3.5,3.6,4.71,4.71,0,0,1-1.5-.6,3.78,3.78,0,0,1-.3-5.3" transform="translate(-0.1 -2.8)"/><path class="cls-2" d="M495.7,126.8a3.14,3.14,0,0,1,1.5-1.7h0a2,2,0,0,1,1.3-.1,2.25,2.25,0,0,1,.2-1.8,2.26,2.26,0,0,0-2.6.2,2.48,2.48,0,0,0-.4,3.4h0" transform="translate(-0.1 -2.8)"/><path class="cls-2" d="M499,125.8h0a2,2,0,0,0-1.5,0h0a1.83,1.83,0,0,0-1.3,1.7,2.93,2.93,0,0,0,.7,1.6c.9,1.2,2.5,1.6,3.4.9a2.2,2.2,0,0,0,.7-2,4.3,4.3,0,0,0-2-2.2" transform="translate(-0.1 -2.8)"/><path class="cls-2" d="M502.6,123.9a2.37,2.37,0,0,0-3.1-.7,1.81,1.81,0,0,0-.2,2.1,6.08,6.08,0,0,1,2.2,2.3,3.55,3.55,0,0,0,.9-.4,2.46,2.46,0,0,0,.2-3.3" transform="translate(-0.1 -2.8)"/><path class="cls-2" d="M501,95.8a10.39,10.39,0,0,0,3.5-4,9.59,9.59,0,0,0,1.3,5.2c1.9,3.4,1.8,7.2-1.4,9.5a5.72,5.72,0,0,1-3.7.9c-1.7-.4-2.9-2.5-2.9-2.5-1.7-3.5,0-6.9,3.2-9.1" transform="translate(-0.1 -2.8)"/><path class="cls-2" d="M513,106.4a14.92,14.92,0,0,0,7.1-3.8,14.6,14.6,0,0,0-1,8c.9,5.8-1.2,11.2-7,12.8,0,0-3.6.8-5.7-.7s-2.7-5.1-2.7-5.1c-.7-5.9,3.5-9.8,9.3-11.2" transform="translate(-0.1 -2.8)"/><path class="cls-2" d="M519,126.1a11.93,11.93,0,0,0,6.7-1.1,12.39,12.39,0,0,0-2.9,6.1c-.9,4.9-4,8.6-9,8.3,0,0-3.1-.3-4.4-2.1s-.8-4.8-.8-4.8c1-4.8,5.4-6.8,10.4-6.4" transform="translate(-0.1 -2.8)"/><path class="cls-2" d="M492.3,115.7a8.5,8.5,0,0,0-1.5-4.1,7.77,7.77,0,0,0,4.2,1.1c3.2,0,5.9,1.4,6.3,4.7a3.27,3.27,0,0,1-2.4,4,4.87,4.87,0,0,1-1.2.1c-3.2-.1-5-2.6-5.4-5.8" transform="translate(-0.1 -2.8)"/><path class="cls-2" d="M489.7,136.4a13.27,13.27,0,0,0-2.6-6.9,13.1,13.1,0,0,0,7.2,1.8c5.4-.1,10,2.5,10.8,7.9,0,0,.3,3.3-1.3,5.1s-5,1.9-5,1.9c-5.5-.1-8.6-4.3-9.1-9.8" transform="translate(-0.1 -2.8)"/><path class="cls-2" d="M517.6,146.6a14.11,14.11,0,0,0,6-4.8,13.48,13.48,0,0,0,.5,7.7c1.8,5.4.8,10.7-4.3,13.2,0,0-3.2,1.4-5.5.4s-3.5-4.3-3.5-4.3c-1.7-5.6,1.6-10,6.8-12.2" transform="translate(-0.1 -2.8)"/><path class="cls-2" d="M532.6,145.7a7.47,7.47,0,0,0,2.5-2.8,6.78,6.78,0,0,0,.9,3.7c1.3,2.4,1.3,5.1-1,6.8a2.87,2.87,0,0,1-4.1-.2l-.6-.9c-1.3-2.7-.1-5.1,2.3-6.6" transform="translate(-0.1 -2.8)"/><path class="cls-2" d="M541.5,159.2a10.39,10.39,0,0,0,4,3.5,9.59,9.59,0,0,0-5.2,1.3c-3.4,1.9-7.2,1.9-9.5-1.3a6.22,6.22,0,0,1-1-3.7c.3-1.7,2.5-2.9,2.5-2.9,3.6-1.8,7-.1,9.2,3.1" transform="translate(-0.1 -2.8)"/><path class="cls-2" d="M522.7,173.6a11.58,11.58,0,0,0,4.5,4.8,12.52,12.52,0,0,0-6.6.9c-4.5,1.9-9.2,1.4-11.6-2.9,0,0-1.4-2.7-.7-4.7s3.5-3.2,3.5-3.2c4.6-1.8,8.6.8,10.9,5.1" transform="translate(-0.1 -2.8)"/><path class="cls-2" d="M494,153.6a8.69,8.69,0,0,0-2.7-4.1,8.2,8.2,0,0,0,4.9.1c3.5-.9,6.8.1,8.1,3.5a3.83,3.83,0,0,1-1.7,5.1,5,5,0,0,1-1.3.4c-3.5.7-6.1-1.6-7.3-5" transform="translate(-0.1 -2.8)"/><path class="cls-2" d="M486.6,167.1a10.21,10.21,0,0,0,3.4-5,10.73,10.73,0,0,0,2.1,5.7c2.6,3.6,3,7.9-.3,10.9,0,0-2.1,1.8-4.1,1.5s-3.6-2.5-3.6-2.5c-2.4-3.7-.9-7.7,2.5-10.6" transform="translate(-0.1 -2.8)"/><path class="cls-2" d="M489.1,197.4a11.76,11.76,0,0,0,4.9,4.2,11.28,11.28,0,0,0-6.2,1.6c-4.1,2.3-8.7,2.2-11.5-1.6,0,0-1.6-2.4-1.1-4.5s3-3.5,3-3.5c4.1-2.1,8.2-.1,10.9,3.8" transform="translate(-0.1 -2.8)"/><path class="cls-2" d="M328.1,153.9a79.22,79.22,0,0,1,6.7,4.6,30.81,30.81,0,0,0,10.2,5.2,26.15,26.15,0,0,0,3.8.9,24.28,24.28,0,0,1,4.8,1.4c-.8-4.1-3.6-21.2.2-36.8.1-.2,6.4-19.8,7.3-23.2l.9.2c0,.1-2,12.2-4.6,23.6-2.5,11.1-2,37.1,7.9,45.3,10.3,8.5,17.7,13.9,22.3,14.5h.1l3.3,4.1.4,1.4a2.14,2.14,0,0,0-1.7-.8c-3.6,0-7.3,2.4-18.2-7.3l-1.8-1.6c-12.7-11.3-19.1-17-23.1-17.9-4.3-1-11-3.4-19.4-13.1l-1.9-2.2Z" transform="translate(-0.1 -2.8)"/><path class="cls-2" d="M364.2,183.6a5,5,0,0,0-4.5-2.2,1.7,1.7,0,0,0-1.4,1.5,2.32,2.32,0,0,0,.4,1.8c.9,1.4,2.1,2.1,3.1,1.8.7-.4,3-.3,3.1-1.5a9,9,0,0,0-.7-1.4" transform="translate(-0.1 -2.8)"/><path class="cls-2" d="M367.2,189.1c.3.3,1.2,1.1,1.8.9a1.47,1.47,0,0,0,1-.9,3.58,3.58,0,0,0-.5-3,2.19,2.19,0,0,0-.3-.5,2.47,2.47,0,0,0-1.8-1.2,2.65,2.65,0,0,0-1.8,1.1,9.08,9.08,0,0,0,1.2,3.1,2.18,2.18,0,0,0,.4.5" transform="translate(-0.1 -2.8)"/><path class="cls-2" d="M365.6,196.2a2.18,2.18,0,0,0,.9.7,3.9,3.9,0,0,0,2.6.4c.5-.2.8-.7,1.1-1.7.2-.7-.1-1.8-1.1-3.2a15.58,15.58,0,0,0-1.6-2,6.2,6.2,0,0,1-1.7,2.2c-.3.4-1,2.5-.2,3.6" transform="translate(-0.1 -2.8)"/><path class="cls-2" d="M362.1,190.7a2.47,2.47,0,0,0,3.4.9,2.53,2.53,0,0,0,.5-3.5h0a2.47,2.47,0,0,0-3.4-.9,2.53,2.53,0,0,0-.5,3.5h0" transform="translate(-0.1 -2.8)"/><path class="cls-2" d="M361.6,191.1a3.36,3.36,0,0,1-.2-3.6c-1.4.3-3.5,1.1-3.5,3a1.2,1.2,0,0,0,.2.8c.7,1.1,3.2,1.2,5.1,1.1a3,3,0,0,1-1.6-1.3" transform="translate(-0.1 -2.8)"/><path class="cls-2" d="M361.8,188.3a2.86,2.86,0,0,0,1.9,3.5,1.7,1.7,0,0,0,.7.1,6.74,6.74,0,0,1-2.2-1.9,2.09,2.09,0,0,1-.4-1.7" transform="translate(-0.1 -2.8)"/><path class="cls-2" d="M351.6,129.3a4.54,4.54,0,0,0-1-4.2,1.51,1.51,0,0,0-1.8-.1,2.34,2.34,0,0,0-1,1.2c-.4,1.3-.2,2.5.5,3,.6.3,1.9,1.8,2.7,1.3a6.72,6.72,0,0,0,.6-1.2" transform="translate(-0.1 -2.8)"/><path class="cls-2" d="M349.7,134.3c0,.4-.1,1.4.4,1.7a1.47,1.47,0,0,0,1.1.2c.7-.2,1.2-.9,1.7-2,.1-.2.1-.3.2-.5a2.15,2.15,0,0,0-.2-1.9,1.83,1.83,0,0,0-1.7-.6,8.87,8.87,0,0,0-1.4,2.5,1.27,1.27,0,0,0-.1.6" transform="translate(-0.1 -2.8)"/><path class="cls-2" d="M344.1,137.1a1.39,1.39,0,0,0,0,.9c.4,1.1.7,1.7,1.1,1.9a2,2,0,0,0,1.7-.2c.6-.2,1.1-1.1,1.5-2.5.2-.7.3-1.4.5-2.2a6.47,6.47,0,0,1-2.4.1c-.4.2-2.1.9-2.4,2" transform="translate(-0.1 -2.8)"/><path class="cls-2" d="M345.8,131.8a2.23,2.23,0,0,0,1.3,2.8,2.32,2.32,0,0,0,3-1.2,2.28,2.28,0,1,0-4.2-1.8.31.31,0,0,1-.1.2" transform="translate(-0.1 -2.8)"/><path class="cls-2" d="M345.2,131.6a2.91,2.91,0,0,1,2.3-2.1c-1-.8-2.6-1.7-3.9-.7a.92.92,0,0,0-.4.6c-.3,1.1,1,2.8,2.1,4a3.67,3.67,0,0,1-.1-1.8" transform="translate(-0.1 -2.8)"/><path class="cls-2" d="M347.2,130.2a2.38,2.38,0,0,0-1.2,3.2,2.19,2.19,0,0,0,.3.5,7,7,0,0,1,0-2.5,1.78,1.78,0,0,1,.9-1.2" transform="translate(-0.1 -2.8)"/><path class="cls-2" d="M353.7,101.3c-.3-.8.5-.4.4-1.3,0-.3-.1-.6-.1-.9,0-.7-.8-1.1-.7-1.8,0-.2.8-.7.9-.9.1-.8-.2-2.1.1-3,.2-.4,1-.3,1.2-.8s.8-1.1,1.1-1.7c.5.3,1,.7,1.5,1s1-.2,1.4.1c.7.6,1,1.9,1.5,2.6.1.2,1.1.2,1.2.4.5.6,0,1.3.3,1.9.1.3.3.6.4.9.3.9.9.2.9,1,0,.3-.4,2.1-.4,2.4,0,1,.8.8.6,1.7-.1.3-1.1,1.8-1.2,2.1-.3.9.5,1.2.1,1.8a7,7,0,0,1-2,1.8,7.71,7.71,0,0,1-2.6-.7c-.6-.4,0-1-.8-1.7-.2-.2-1.9-1-2.1-1.2-.6-.6.2-.8-.3-1.7a12.14,12.14,0,0,0-1.4-2" transform="translate(-0.1 -2.8)"/><path class="cls-2" d="M340.3,117.5c-1-.8.4-1-.5-2.2a14.63,14.63,0,0,1-.9-1.3c-.6-.9-1.9-1-2.4-2.1-.1-.3.6-1.6.5-1.9-.4-1.2-1.9-2.8-2.1-4.3-.1-.7,1.1-1.2,1-2s.3-2.2.3-3.2a26.42,26.42,0,0,1,2.9.2c.8.1,1.4-1,2-.9,1.5.3,2.9,2,4.1,2.5.3.1,1.7-.5,2-.4,1.1.5,1,1.9,1.9,2.5a10.59,10.59,0,0,1,1.2,1c1.1,1,1.4-.4,2.1.7.3.4,1.1,3.2,1.3,3.7.8,1.4,1.8.5,2.1,1.9.1.5-.2,3.4-.2,3.9.3,1.5,1.6,1.3,1.6,2.4a12.47,12.47,0,0,1-1.4,4.1,11.86,11.86,0,0,1-4.2,1.1c-1.1-.1-.8-1.4-2.3-1.8-.5-.1-3.4,0-3.9-.2-1.4-.4-.4-1.4-1.7-2.2-.2-.1-3-1.2-3.4-1.5" transform="translate(-0.1 -2.8)"/><path class="cls-2" d="M365.3,109c.7-.6.6.4,1.5,0,.3-.1.6-.2,1-.3.7-.2,1-1.1,1.8-1.2.2,0,1,.7,1.2.7.9-.1,2.2-.8,3.2-.7.5.1.6.9,1.1,1s1.4.6,2.1.8c-.2.7-.4,1.3-.6,1.9s.5,1.1.2,1.5c-.5,1-1.8,1.6-2.3,2.4-.1.2,0,1.2-.1,1.4-.5.7-1.4.4-2,.9-.3.2-.5.4-.8.6-.8.6,0,1-.8,1.3-.3.1-2.4.2-2.7.3-1.1.3-.6,1.1-1.6,1.1-.4,0-2.2-.7-2.6-.7-1.1-.1-1.2.8-1.9.7a8.21,8.21,0,0,1-2.5-1.6,7.57,7.57,0,0,1,0-3c.2-.7,1.1-.3,1.6-1.3.2-.3.5-2.3.7-2.6.5-.8,1,0,1.8-.8a19.12,19.12,0,0,1,1.7-2.4" transform="translate(-0.1 -2.8)"/><path class="cls-2" d="M360.8,128.1c.8-.9.9.4,2-.3a7.46,7.46,0,0,0,1.2-.7c.9-.4,1.1-1.7,2.2-2,.3-.1,1.4.7,1.7.7,1.2-.2,2.8-1.5,4.2-1.5.6,0,1,1.1,1.7,1.2s2,.5,2.9.6a20,20,0,0,1-.5,2.6c-.2.7.8,1.3.6,2-.4,1.4-2.1,2.5-2.7,3.6-.1.3.3,1.6.1,1.9-.6,1-1.8.8-2.5,1.5a9.43,9.43,0,0,1-1,1c-1,.9.2,1.3-.9,1.9-.4.2-3.1.7-3.5.9-1.4.6-.6,1.6-2,1.8-.5.1-3.1-.6-3.6-.5-1.4.1-1.4,1.3-2.4,1.2a9.93,9.93,0,0,1-3.6-1.7,13.36,13.36,0,0,1-.6-4c.2-1,1.4-.6,1.9-2,.2-.4.3-3.1.5-3.6.6-1.2,1.3-.2,2.2-1.4.5-.5,1.8-3,2.1-3.2" transform="translate(-0.1 -2.8)"/><path class="cls-2" d="M360.7,148.9c.6-.6.6.3,1.4-.2.3-.2.6-.3.9-.5.6-.3.7-1.2,1.5-1.4.2,0,1,.5,1.2.5.8-.2,1.9-1,2.9-1.1.4,0,.7.8,1.2.8a17.66,17.66,0,0,1,2,.4,11.63,11.63,0,0,1-.4,1.8c-.1.5.6.9.4,1.4-.3.9-1.5,1.7-1.8,2.5-.1.2.2,1.1.1,1.3-.4.7-1.2.5-1.7,1l-.7.7c-.7.6.2.9-.6,1.3-.3.1-2.1.5-2.4.6-1,.4-.4,1.1-1.4,1.2-.3.1-2.1-.4-2.5-.4-1,.1-1,.9-1.7.8a6.42,6.42,0,0,1-2.5-1.2,8.42,8.42,0,0,1-.4-2.7c.1-.7.9-.4,1.3-1.4a21.66,21.66,0,0,1,.4-2.5c.4-.8.9-.1,1.5-.9.2-.1,1.1-1.8,1.3-2" transform="translate(-0.1 -2.8)"/><path class="cls-2" d="M365.9,172.6c-.3-1,.7-.5.6-1.6v-1.2c0-.9-.9-1.4-.6-2.4.1-.2,1.1-.8,1.2-1,.3-1,0-2.7.5-3.7.2-.5,1.2-.3,1.5-.8a23.15,23.15,0,0,1,1.6-1.9c.6.5,1.2.9,1.8,1.4s1.3-.1,1.7.3c.8.9,1.1,2.6,1.6,3.4.1.2,1.3.4,1.5.6.5.8-.1,1.7.2,2.5.1.4.3.8.4,1.1.3,1.1,1.1.3,1.1,1.4,0,.4-.7,2.6-.7,3-.1,1.2.9,1.1.6,2.1-.1.4-1.6,2.1-1.8,2.5-.5,1.1.5,1.6,0,2.3a10.52,10.52,0,0,1-2.7,2,9.37,9.37,0,0,1-3.2-1.1c-.7-.5.1-1.3-.8-2.2-.3-.3-2.2-1.5-2.5-1.8-.7-.9.4-1-.1-2.2a22.23,22.23,0,0,1-1.9-2.7" transform="translate(-0.1 -2.8)"/><path class="cls-2" d="M335.7,153.9c-.4-1.1.7-.6.5-1.8,0-.4-.1-.9-.1-1.3,0-.9-1-1.5-.8-2.6,0-.3,1.2-.9,1.2-1.2.2-1.1-.2-2.9.3-4.1.2-.6,1.3-.4,1.6-1s1.2-1.5,1.6-2.2c.7.5,1.4.9,2,1.4s1.5-.2,1.9.2c1,.9,1.3,2.7,2,3.6.2.2,1.5.4,1.6.6.6.9,0,1.8.3,2.7.2.4.3.8.5,1.2.4,1.2,1.2.3,1.2,1.4,0,.4-.6,2.9-.6,3.3,0,1.4,1.1,1.1.7,2.3-.1.4-1.7,2.4-1.8,2.8-.5,1.2.6,1.7.1,2.5a9.18,9.18,0,0,1-2.8,2.4,9.25,9.25,0,0,1-3.6-1c-.8-.5,0-1.4-1-2.3-.3-.3-2.5-1.4-2.8-1.8-.8-.9.3-1.2-.3-2.4.1-.3-1.5-2.3-1.7-2.7" transform="translate(-0.1 -2.8)"/><path class="cls-2" d="M380.9,203.9c-.8.3-.4-.6-1.4-.5h-1c-.7,0-1.2.8-2.1.6-.2-.1-.7-1-.9-1-.9-.2-2.3.1-3.2-.4-.4-.2-.3-1.1-.7-1.3s-1.1-1-1.7-1.4a9.83,9.83,0,0,1,1.2-1.5c.4-.4-.1-1.2.2-1.5.7-.7,2.2-.9,2.9-1.5.2-.1.3-1.1.5-1.3.7-.4,1.4.1,2.1-.2l1-.3c1-.3.3-.9,1.2-.9.3,0,2.3.6,2.6.6,1.1.1.9-.8,1.9-.5.3.1,1.9,1.4,2.2,1.6,1,.4,1.4-.4,2,0a10.18,10.18,0,0,1,1.8,2.3,7.09,7.09,0,0,1-.9,2.8c-.5.6-1.1,0-1.9.7-.2.2-1.2,2-1.5,2.2-.8.6-.9-.3-1.9.1-.3.1-2,1.3-2.4,1.4" transform="translate(-0.1 -2.8)"/><path class="cls-2" d="M323.7,149.7c-.3-.6.4-.3.3-1.1,0-.2-.1-.5-.1-.7,0-.6-.6-.9-.5-1.5,0-.2.6-.6.7-.7.1-.6-.2-1.7.1-2.4.1-.3.8-.3.9-.6a7.7,7.7,0,0,1,.9-1.3,8.34,8.34,0,0,1,1.2.8c.3.2.8-.1,1.1.1.6.5.8,1.6,1.2,2.1.1.1.9.2.9.3.4.5,0,1.1.2,1.5.1.2.2.5.3.7.2.7.7.1.8.8,0,.2-.3,1.7-.3,1.9,0,.8.7.6.5,1.3-.1.2-.9,1.4-1,1.7-.2.7.4.9.1,1.4a2.27,2.27,0,0,1-2.9,1.4,1.61,1.61,0,0,1-.7-.4c-.5-.3,0-.8-.6-1.3-.2-.2-1.5-.8-1.7-1-.5-.5.2-.7-.2-1.4-.1-.3-1.1-1.4-1.2-1.6" transform="translate(-0.1 -2.8)"/><path class="cls-2" d="M322.8,162.9c-.8.1-.3-.6-1.3-.7-.3,0-.7-.1-1-.1-.7-.1-1.3.5-2,.2-.2-.1-.5-1-.7-1.1-.8-.4-2.2-.3-3-.8-.4-.2-.1-1-.5-1.3s-.9-1.1-1.4-1.5l1.3-1.3c.4-.4.1-1.1.5-1.4.8-.6,2.2-.6,3-.9.2-.1.5-1,.7-1.1.7-.3,1.3.3,2,.2.3-.1.7-.1,1-.2.9-.1.4-.8,1.2-.7a21.85,21.85,0,0,0,2.3.9c1,.2,1-.6,1.8-.2.3.2,1.5,1.6,1.8,1.7.8.5,1.3-.2,1.9.3a7.22,7.22,0,0,1,1.4,2.4,8.53,8.53,0,0,1-1.3,2.5c-.5.5-1-.2-1.9.4-.3.2-1.5,1.6-1.8,1.8-.8.5-.8-.4-1.8-.1a9,9,0,0,1-2.2,1" transform="translate(-0.1 -2.8)"/><path class="cls-2" d="M347.6,180.3c-.9.3-.5-.6-1.5-.5H345c-.8,0-1.4.8-2.3.6-.2-.1-.8-1-1-1.1-.9-.2-2.5.1-3.5-.4-.5-.2-.3-1.2-.8-1.4s-1.2-1.1-1.9-1.5c.4-.6.9-1.2,1.3-1.7s-.1-1.3.3-1.6c.8-.8,2.4-1,3.2-1.6.2-.1.4-1.2.6-1.4.8-.5,1.6.1,2.3-.2.4-.1.7-.3,1.1-.4,1-.3.3-1,1.3-1,.4,0,2.5.6,2.8.6,1.2.1,1-.9,2-.6.4.1,2,1.5,2.4,1.7,1.1.4,1.5-.4,2.2,0a9.58,9.58,0,0,1,2,2.5,9.64,9.64,0,0,1-1,3c-.5.7-1.2,0-2,.7-.3.2-1.4,2.1-1.7,2.4-.8.7-1-.3-2.1.2a19.23,19.23,0,0,1-2.6,1.7" transform="translate(-0.1 -2.8)"/><path class="cls-1" d="M610.42,63.86c-10.2,0-15.95-5.53-15.95-14.88V38.61c0-9.13,5.91-14.66,16.17-14.66a25.8,25.8,0,0,1,12.94,3.44,1,1,0,0,1,.27,1.5l-4.46,6.39a.92.92,0,0,1-1.45.27,15,15,0,0,0-7.3-1.66c-3.66,0-5.48,1.93-5.48,5.1V48.6c0,3.33,1.72,5.27,5.26,5.27A12.05,12.05,0,0,0,615,53V48.5h-4.46a1,1,0,0,1-1.07-1.08V41.25a1,1,0,0,1,1.07-1.08h13.27a1,1,0,0,1,1.07,1.08V57a1.62,1.62,0,0,1-.48,1.23A20.32,20.32,0,0,1,610.42,63.86Z" transform="translate(-0.1 -2.8)"/><path class="cls-1" d="M642.38,63.86c-8.27,0-13.16-4.35-13.16-11.87V46.24c0-7.57,4.89-11.92,13.16-11.92s13.16,4.35,13.16,11.92V52C655.54,59.51,650.65,63.86,642.38,63.86Zm0-8.76A2.78,2.78,0,0,0,645.44,52V46.24a3.06,3.06,0,1,0-6.12,0V52A2.78,2.78,0,0,0,642.38,55.1Z" transform="translate(-0.1 -2.8)"/><path class="cls-1" d="M667,63.11a1.15,1.15,0,0,1-1.18-.86L657.1,36.3a.83.83,0,0,1,.86-1.23h8.32a1.11,1.11,0,0,1,1.18.91l2.37,10.15c.32,1.4,1.12,4.57,1.61,6.93h.21c.54-2.36,1.29-5.48,1.67-6.93L675.79,36a1.12,1.12,0,0,1,1.18-.91h8.32a.83.83,0,0,1,.86,1.23l-8.86,26a1.2,1.2,0,0,1-1.23.86Z" transform="translate(-0.1 -2.8)"/><path class="cls-1" d="M712.85,51A1,1,0,0,1,711.77,52H697.59v.27c0,2.26,1.29,3.44,3.66,3.44a12.61,12.61,0,0,0,6.12-1.51,1,1,0,0,1,1.45.27L712,58.92a1,1,0,0,1-.16,1.5,17.34,17.34,0,0,1-11,3.44c-7.73,0-13.27-4.08-13.27-11.82V46c0-8.11,5.38-11.71,12.95-11.71,7.3,0,12.3,3.43,12.3,11.71Zm-12.41-8.76c-1.88,0-2.85,1.13-2.85,3.23v.85h5.75v-.85C703.34,43.34,702.32,42.21,700.44,42.21Z" transform="translate(-0.1 -2.8)"/><path class="cls-1" d="M718.17,63.11A1,1,0,0,1,717.09,62V37.92a1.35,1.35,0,0,1,.75-1.29,22.94,22.94,0,0,1,10.37-2.31,29,29,0,0,1,4.94.53,1.13,1.13,0,0,1,1,1.19v6A.89.89,0,0,1,733,43a20.62,20.62,0,0,0-2.47-.16,8.82,8.82,0,0,0-3.49.59V62A1,1,0,0,1,726,63.11Z" transform="translate(-0.1 -2.8)"/><path class="cls-1" d="M738.52,63.11A1,1,0,0,1,737.45,62V37.75a1.22,1.22,0,0,1,.8-1.23A34.19,34.19,0,0,1,750,34.32c8.86,0,13,5.1,13,12.78V62a1,1,0,0,1-1.07,1.08H754.1A1,1,0,0,1,753,62V46.94C753,44,752,43.07,750,43.07a9.52,9.52,0,0,0-2.58.32V62a1,1,0,0,1-1.07,1.08Z" transform="translate(-0.1 -2.8)"/><path class="cls-1" d="M780.36,63.86c-8.27,0-13.16-4.35-13.16-11.87V46.24c0-7.57,4.89-11.92,13.16-11.92s13.16,4.35,13.16,11.92V52C793.52,59.51,788.63,63.86,780.36,63.86Zm0-8.76A2.78,2.78,0,0,0,783.42,52V46.24a3.06,3.06,0,1,0-6.12,0V52A2.79,2.79,0,0,0,780.36,55.1Z" transform="translate(-0.1 -2.8)"/><path class="cls-1" d="M823.49,25.78a1,1,0,0,1,1.08-1.08h7.78a1,1,0,0,1,1.08,1.08V60.64a1.2,1.2,0,0,1-.86,1.23,36.63,36.63,0,0,1-11.76,2c-7.9,0-13.06-5.21-13.06-12.52V46.56c0-7.52,4.52-12.24,11.44-12.24a14.64,14.64,0,0,1,4.3.64ZM821,55.05a7.48,7.48,0,0,0,2.52-.43V43.29a7.58,7.58,0,0,0-2.58-.43c-2,0-3.06,1.18-3.06,3.43v5.32C817.85,53.87,818.93,55.05,821,55.05Z" transform="translate(-0.1 -2.8)"/><path class="cls-1" d="M863.13,51A1,1,0,0,1,862.06,52H847.88v.27c0,2.26,1.29,3.44,3.65,3.44a12.59,12.59,0,0,0,6.12-1.51,1,1,0,0,1,1.45.27l3.22,4.41a1,1,0,0,1-.16,1.5,17.34,17.34,0,0,1-11,3.44c-7.73,0-13.26-4.08-13.26-11.82V46c0-8.11,5.37-11.71,12.94-11.71,7.3,0,12.3,3.43,12.3,11.71Zm-12.41-8.76c-1.88,0-2.84,1.13-2.84,3.23v.85h5.74v-.85C853.62,43.34,852.6,42.21,850.72,42.21Z" transform="translate(-0.1 -2.8)"/></svg>